<?xml version="1.0" encoding="utf-8"?>
<svg version="1.1" xmlns:xlink="http://www.w3.org/1999/xlink" width="18px" height="16px" xmlns="http://www.w3.org/2000/svg">
  <g transform="matrix(1 0 0 1 -90 -20 )">
    <path d="M 17.75 10.375  C 17.75 10.9354166666667  17.3515625 11.39375  16.859375 11.39375  L 6.708984375 11.39375  C 6.216796875 11.39375  5.818359375 10.9354166666667  5.818359375 10.375  C 5.818359375 9.81458333333333  6.216796875 9.35625  6.708984375 9.35625  L 16.859375 9.35625  C 17.3515625 9.35625  17.75 9.81458333333333  17.75 10.375  Z M 17.75 5.62291666666667  C 17.75 6.18333333333333  17.3515625 6.64166666666667  16.859375 6.64166666666667  L 6.708984375 6.64166666666667  C 6.216796875 6.64166666666667  5.818359375 6.18333333333333  5.818359375 5.62291666666667  C 5.818359375 5.0625  6.216796875 4.60416666666667  6.708984375 4.60416666666667  L 16.859375 4.60416666666667  C 17.3515625 4.60416666666667  17.75 5.0625  17.75 5.62291666666667  Z M 17.75 1.00833333333333  C 17.765625 1.58541666666666  17.3359375 2.06041666666666  16.794921875 2  L 1.251953125 2  C 0.7265625 2.06041666666667  0.265625 1.63541666666667  0.25 1.07708333333333  C 0.234375 0.499999999999999  0.6640625 0.0249999999999986  1.205078125 0  L 16.748046875 0  C 17.2734375 0.0249999999999986  17.734375 0.449999999999999  17.75 1.00833333333333  Z M 4.689453125 11.3770833333333  C 4.689453125 11.39375  4.689453125 11.39375  4.689453125 11.3770833333333  L 4.689453125 4.62291666666667  L 0.25 8  L 4.689453125 11.3770833333333  Z M 0.25 14.9916666666667  C 0.234375 14.4145833333333  0.6640625 13.9395833333333  1.205078125 14  L 16.748046875 14  C 17.2734375 13.9395833333333  17.734375 14.3645833333333  17.75 14.9229166666667  C 17.765625 15.5  17.3359375 15.975  16.794921875 16  L 1.251953125 16  C 0.7265625 15.975  0.265625 15.55  0.25 14.9916666666667  Z " fill-rule="nonzero" fill="#ffffff" stroke="none" transform="matrix(1 0 0 1 90 20 )" />
  </g>
</svg>