<?xml version="1.0" encoding="utf-8"?>
<svg version="1.1" xmlns:xlink="http://www.w3.org/1999/xlink" width="20px" height="24px" xmlns="http://www.w3.org/2000/svg">
  <g transform="matrix(1 0 0 1 -1691 -19 )">
    <path d="M 19.45 18.6  C 19.3 18  18.7 17.4  17.95 17.4  L 17.95 10.65  C 17.95 6.75  15.1 3.45  11.35 2.85  L 11.35 1.35  C 11.35 0.6  10.75 0  10 0  C 9.25 0  8.65 0.6  8.65 1.35  L 8.65 2.85  C 4.9 3.45  2.05 6.75  2.05 10.65  L 2.05 17.25  C 1.3 17.25  0.699999999999999 17.85  0.699999999999999 18.6  C 0.699999999999999 19.35  1.3 19.95  2.05 20  L 18.1 20  C 18.85 19.95  19.45 19.35  19.45 18.6  Z M 15.4 10.65  L 15.4 17  L 4.6 17  L 4.6 10.65  C 4.6 7.65  7 5.25  10 5.25  C 13 5.25  15.4 7.65  15.4 10.65  Z M 12.7 22.65  C 12.7 21.9  12.1 21.3  11.35 21.3  L 8.65 21.3  C 7.9 21.3  7.3 21.9  7.3 22.65  C 7.3 23.4  7.9 24  8.65 24  L 11.35 24  C 12.1 24  12.7 23.4  12.7 22.65  Z " fill-rule="nonzero" fill="#ffffff" stroke="none" transform="matrix(1 0 0 1 1691 19 )" />
  </g>
</svg>