<?xml version="1.0" encoding="utf-8"?>
<svg version="1.1" xmlns:xlink="http://www.w3.org/1999/xlink" width="22px" height="24px" xmlns="http://www.w3.org/2000/svg">
  <g transform="matrix(1 0 0 1 -23 -91 )">
    <path d="M 1.50253662109375 6.64376502403846  L 9.785380859375 0.964245793269231  C 10.58728515625 0.414375  11.6425170898437 0.418106971153846  12.4405541992187 0.973629807692308  L 20.58439453125 6.64254807692308  C 21.218310801614 7.08382365750781  21.596669529295 7.81039384662346  21.5966577148438 8.58641826923077  L 21.5966577148438 21.5999909855769  C 21.5966577148438 22.9050991586539  20.5460180664063 23.9630859375  19.25 24  L 2.8233154296875 24  C 1.52729736328125 23.9630859375  0.4766845703125 22.9050991586539  0.4766845703125 21.5999909855769  L 0.4766845703125 8.5969921875  C 0.476683030059808 7.81510914736118  0.86074971975028 7.08384435112386  1.50253662109375 6.64376502403846  Z M 16.9033154296875 19.2149098557692  C 16.9033154296875 18.5623557692308  16.3780224609375 18.0333894230769  15.73 18.0333894230769  L 6.34334228515625 18.0333894230769  C 5.69531982421875 18.0333894230769  5.17 18.5623557692308  5.17 19.2149098557692  L 5.17 19.2420342548077  C 5.17 19.8945883413462  5.69531982421875 20.4235817307692  6.3433154296875 20.4235817307692  L 15.73 20.4235817307692  C 16.3780224609375 20.4235817307692  16.9033154296875 19.8945883413462  16.9033154296875 19.2420612980769  L 16.9033154296875 19.2149098557692  Z " fill-rule="nonzero" fill="#ffffff" stroke="none" transform="matrix(1 0 0 1 23 91 )" />
  </g>
</svg>