<?xml version="1.0" encoding="utf-8"?>
<svg version="1.1" xmlns:xlink="http://www.w3.org/1999/xlink" width="27px" height="11px" xmlns="http://www.w3.org/2000/svg">
  <g transform="matrix(1 0 0 1 -600 -139 )">
    <path d="M 10.875 6.72500000000001  C 10.875 9.035  8.985 10.925  6.675 10.925  L 4.575 10.925  C 2.265 10.925  0.375 9.035  0.375 6.725  L 0.375 4.625  C 0.375 2.315  2.265 0.425000000000001  4.575 0.425000000000001  L 6.675 0.425000000000001  C 8.985 0.425000000000001  10.875 2.315  10.875 4.625  L 10.875 6.72500000000001  Z M 26.625 6.72500000000001  C 26.625 9.035  24.735 10.925  22.425 10.925  L 20.325 10.925  C 18.015 10.925  16.125 9.035  16.125 6.725  L 16.125 4.625  C 16.125 2.315  18.015 0.425000000000001  20.325 0.425000000000001  L 22.425 0.425000000000001  C 24.735 0.425000000000001  26.625 2.315  26.625 4.625  L 26.625 6.72500000000001  Z " fill-rule="nonzero" fill="#3889ff" stroke="none" transform="matrix(1 0 0 1 600 139 )" />
  </g>
</svg>