<?xml version="1.0" encoding="utf-8"?>
<svg version="1.1" xmlns:xlink="http://www.w3.org/1999/xlink" width="12px" height="12px" viewBox="841 289  12 12" xmlns="http://www.w3.org/2000/svg">
  <path d="M 841.5 292  A 2.5 2.5 0 0 1 844 289.5 L 850 289.5  A 2.5 2.5 0 0 1 852.5 292 L 852.5 298  A 2.5 2.5 0 0 1 850 300.5 L 844 300.5  A 2.5 2.5 0 0 1 841.5 298 L 841.5 292  Z " fill-rule="nonzero" fill="#ffffff" stroke="none" />
  <path d="M 841.5 292  A 2.5 2.5 0 0 1 844 289.5 L 850 289.5  A 2.5 2.5 0 0 1 852.5 292 L 852.5 298  A 2.5 2.5 0 0 1 850 300.5 L 844 300.5  A 2.5 2.5 0 0 1 841.5 298 L 841.5 292  Z " stroke-width="1" stroke="#0079fe" fill="none" />
</svg>