<?xml version="1.0" encoding="utf-8"?>
<svg version="1.1" xmlns:xlink="http://www.w3.org/1999/xlink" width="12px" height="12px" viewBox="975 289  12 12" xmlns="http://www.w3.org/2000/svg">
  <path d="M 975.5 292  A 2.5 2.5 0 0 1 978 289.5 L 984 289.5  A 2.5 2.5 0 0 1 986.5 292 L 986.5 298  A 2.5 2.5 0 0 1 984 300.5 L 978 300.5  A 2.5 2.5 0 0 1 975.5 298 L 975.5 292  Z " fill-rule="nonzero" fill="#f0f0f0" stroke="none" />
  <path d="M 975.5 292  A 2.5 2.5 0 0 1 978 289.5 L 984 289.5  A 2.5 2.5 0 0 1 986.5 292 L 986.5 298  A 2.5 2.5 0 0 1 984 300.5 L 978 300.5  A 2.5 2.5 0 0 1 975.5 298 L 975.5 292  Z " stroke-width="1" stroke="#0079fe" fill="none" />
</svg>