<?xml version="1.0" encoding="utf-8"?>
<svg version="1.1" xmlns:xlink="http://www.w3.org/1999/xlink" width="23px" height="23px" xmlns="http://www.w3.org/2000/svg">
  <defs>
    <path d="M 0 0  L 1024 0  L 1024 1024  L 0 1024  Z " fill-rule="evenodd" fill="black" id="path19" />
    <clipPath id="clip20">
      <use xlink:href="#path19" />
    </clipPath>
    <filter x="-50.00%" y="-50.00%" width="200.00%" height="200.00%" filterUnits="objectBoundingBox" id="filter21">
      <feColorMatrix type="matrix" values="1 0 0 0 0  0 1 0 0 0  0 0 1 0 0  0 0 0 1 0  " in="SourceGraphic" />
    </filter>
  </defs>
  <g transform="matrix(1 0 0 1 -142 -1272 )">
    <g transform="matrix(0.0224609375 0 0 0.0224609375 142 1272 )" clip-path="url(#clip20)" filter="url(#filter21)">
      <path d="M932.03968 107.40736a34.304 34.304 0 0 0-32.80896-8.97536 53.9136 53.9136 0 0 0-11.14624-1.152h-201.6a34.51904 34.51904 0 0 0 0 69.03296h137.728l-137.216 136.9856a359.04 359.04 0 1 0 45.2608 52.30592l140.91264-140.65664V336.2304a34.47296 34.47296 0 1 0 68.94592 0V151.34208a54.05184 54.05184 0 0 0-1.16736-11.14624 34.41152 34.41152 0 0 0-8.9088-32.78848zM397.1328 367.104a44.09856 44.09856 0 0 1-17.408 6.1952 184.32 184.32 0 0 0-150.61504 145.19296v0.08704a177.60256 177.60256 0 0 0-2.048 12.8c-3.31776 10.48064-12.02176 23.4752-34.93376 23.4752a29.26592 29.26592 0 0 1-25.79456-14.04416 43.88352 43.88352 0 0 1-5.51424-31.98976A253.7216 253.7216 0 0 1 345.9072 309.8624a71.64928 71.64928 0 0 1 35.328-1.664 33.62304 33.62304 0 0 1 25.33376 23.51616c4.80256 18.33984-2.68288 30.93504-9.43616 35.38944z" fill="#5288F5" p-id="19999"></path>
    </g>
  </g>
</svg>