<?xml version="1.0" encoding="utf-8"?>
<svg version="1.1" xmlns:xlink="http://www.w3.org/1999/xlink" width="21px" height="19px" xmlns="http://www.w3.org/2000/svg">
  <g transform="matrix(1 0 0 1 -464 -524 )">
    <path d="M 20.134585 1.14893  C 20.2021802485922 0.885334960270007  20.1261788442162 0.605614848991938  19.934485 0.41247  C 19.7418010358126 0.219645066947238  19.4615714629703 0.142984261517671  19.197565 0.210875  C 19.1152386330797 0.193577410888488  19.0313338870056 0.184905583664475  18.94721 0.185  L 14.419085 0.185  C 13.9945965074505 0.19017006144377  13.653197438443 0.535752524212908  13.653197438443 0.9602725  C 13.653197438443 1.38479247578709  13.9945965074505 1.73037493855623  14.419085 1.735545  L 17.512585 1.735545  L 14.430585 4.81237  C 12.9310860787452 3.38429573207086  10.9397106475599 2.58775361460079  8.8689877956152 2.58775361460079  C 4.41515646619849 2.58775361460079  0.804612795615198 6.19829728518409  0.804612795615198 10.6521286146008  C 0.804612795615198 15.1059599440175  4.41515646619849 18.7165036146008  8.8689877956152 18.7165036146008  C 13.3228191250319 18.7165036146008  16.9333627956152 15.1059599440175  16.9333627956152 10.6521286146008  C 16.9333627956152 8.98071666931805  16.4140300061183 7.35059865514492  15.447185 5.98721  L 18.612215 2.82793  L 18.612215 5.55205  C 18.612215 5.97968132037023  18.9588786796298 6.326345  19.38651 6.326345  C 19.8141413203702 6.326345  20.160805 5.97968132037023  20.160805 5.55205  L 20.160805 1.399285  C 20.1607634893787 1.31515024260481  20.151976268047 1.23124769506489  20.134585 1.14893  Z M 8.13192 5.45062  C 8.23979 5.86255  8.07166 6.14545  7.919975 6.2455  C 7.80093052915083 6.3189744399196  7.66767239674177 6.36639865762988  7.528975 6.38465  C 5.83389432677326 6.6644745195076  4.48777641471631 7.96213273584886  4.14602 9.64582  L 4.14602 9.647775  C 4.12719328219254 9.74301664542415  4.1118497315758 9.83891383677878  4.10002 9.935275  C 4.0255 10.17068  3.83 10.46255  3.315375 10.46255  C 3.07965107301364 10.4689330848297  2.85856801977725 10.3485617440144  2.736005 10.147105  C 2.6043973070195 9.93223350701373  2.56007706157355 9.67511847122335  2.61215 9.428585  C 3.01618045631455 7.25991857697792  4.63552921225098 5.51921945368792  6.7694 4.9598  C 7.02662138755067 4.88123119182339  7.29943237578048 4.86838139889953  7.5629 4.922425  C 7.83548256266475 4.98005091082114  8.05419705262348 5.18307347597482  8.13192 5.45062  Z " fill-rule="nonzero" fill="#5288f5" stroke="none" transform="matrix(1 0 0 1 464 524 )" />
  </g>
</svg>