<?xml version="1.0" encoding="utf-8"?>
<svg version="1.1" xmlns:xlink="http://www.w3.org/1999/xlink" width="12px" height="12px" viewBox="1111 289  12 12" xmlns="http://www.w3.org/2000/svg">
  <path d="M 1111.5 292  A 2.5 2.5 0 0 1 1114 289.5 L 1120 289.5  A 2.5 2.5 0 0 1 1122.5 292 L 1122.5 298  A 2.5 2.5 0 0 1 1120 300.5 L 1114 300.5  A 2.5 2.5 0 0 1 1111.5 298 L 1111.5 292  Z " fill-rule="nonzero" fill="#ffffff" stroke="none" />
  <path d="M 1111.5 292  A 2.5 2.5 0 0 1 1114 289.5 L 1120 289.5  A 2.5 2.5 0 0 1 1122.5 292 L 1122.5 298  A 2.5 2.5 0 0 1 1120 300.5 L 1114 300.5  A 2.5 2.5 0 0 1 1111.5 298 L 1111.5 292  Z " stroke-width="1" stroke="#0079fe" fill="none" />
  <path d="M 1113.57142857143 295  L 1116.14285714286 297.571428571429  " stroke-width="2.57142857142857" stroke="#0079fe" fill="none" />
  <path d="M 1116.14285714286 297.571428571429  L 1120.42857142857 291.571428571429  " stroke-width="2.57142857142857" stroke="#0079fe" fill="none" />
</svg>