<?xml version="1.0" encoding="utf-8"?>
<svg version="1.1" xmlns:xlink="http://www.w3.org/1999/xlink" width="12px" height="12px" viewBox="975 855  12 12" xmlns="http://www.w3.org/2000/svg">
  <path d="M 975.5 858  A 2.5 2.5 0 0 1 978 855.5 L 984 855.5  A 2.5 2.5 0 0 1 986.5 858 L 986.5 864  A 2.5 2.5 0 0 1 984 866.5 L 978 866.5  A 2.5 2.5 0 0 1 975.5 864 L 975.5 858  Z " fill-rule="nonzero" fill="#f0f0f0" stroke="none" />
  <path d="M 975.5 858  A 2.5 2.5 0 0 1 978 855.5 L 984 855.5  A 2.5 2.5 0 0 1 986.5 858 L 986.5 864  A 2.5 2.5 0 0 1 984 866.5 L 978 866.5  A 2.5 2.5 0 0 1 975.5 864 L 975.5 858  Z " stroke-width="1" stroke="#0079fe" fill="none" />
</svg>