<?xml version="1.0" encoding="utf-8"?>
<svg version="1.1" xmlns:xlink="http://www.w3.org/1999/xlink" width="12px" height="12px" viewBox="841 502  12 12" xmlns="http://www.w3.org/2000/svg">
  <path d="M 841.5 505  A 2.5 2.5 0 0 1 844 502.5 L 850 502.5  A 2.5 2.5 0 0 1 852.5 505 L 852.5 511  A 2.5 2.5 0 0 1 850 513.5 L 844 513.5  A 2.5 2.5 0 0 1 841.5 511 L 841.5 505  Z " fill-rule="nonzero" fill="#f0f0f0" stroke="none" />
  <path d="M 841.5 505  A 2.5 2.5 0 0 1 844 502.5 L 850 502.5  A 2.5 2.5 0 0 1 852.5 505 L 852.5 511  A 2.5 2.5 0 0 1 850 513.5 L 844 513.5  A 2.5 2.5 0 0 1 841.5 511 L 841.5 505  Z " stroke-width="1" stroke="#0079fe" fill="none" />
</svg>