<?xml version="1.0" encoding="utf-8"?>
<svg version="1.1" xmlns:xlink="http://www.w3.org/1999/xlink" width="12px" height="12px" viewBox="842 856  12 12" xmlns="http://www.w3.org/2000/svg">
  <path d="M 842.5 859  A 2.5 2.5 0 0 1 845 856.5 L 851 856.5  A 2.5 2.5 0 0 1 853.5 859 L 853.5 865  A 2.5 2.5 0 0 1 851 867.5 L 845 867.5  A 2.5 2.5 0 0 1 842.5 865 L 842.5 859  Z " fill-rule="nonzero" fill="#f0f0f0" stroke="none" />
  <path d="M 842.5 859  A 2.5 2.5 0 0 1 845 856.5 L 851 856.5  A 2.5 2.5 0 0 1 853.5 859 L 853.5 865  A 2.5 2.5 0 0 1 851 867.5 L 845 867.5  A 2.5 2.5 0 0 1 842.5 865 L 842.5 859  Z " stroke-width="1" stroke="#0079fe" fill="none" />
  <path d="M 844.571428571429 862  L 847.142857142857 864.571428571429  " stroke-width="2.57142857142857" stroke="#0079fe" fill="none" />
  <path d="M 847.142857142857 864.571428571429  L 851.428571428571 858.571428571429  " stroke-width="2.57142857142857" stroke="#0079fe" fill="none" />
</svg>