<?xml version="1.0" encoding="utf-8"?>
<svg version="1.1" xmlns:xlink="http://www.w3.org/1999/xlink" width="12px" height="12px" viewBox="975 361  12 12" xmlns="http://www.w3.org/2000/svg">
  <path d="M 975.5 364  A 2.5 2.5 0 0 1 978 361.5 L 984 361.5  A 2.5 2.5 0 0 1 986.5 364 L 986.5 370  A 2.5 2.5 0 0 1 984 372.5 L 978 372.5  A 2.5 2.5 0 0 1 975.5 370 L 975.5 364  Z " fill-rule="nonzero" fill="#f0f0f0" stroke="none" />
  <path d="M 975.5 364  A 2.5 2.5 0 0 1 978 361.5 L 984 361.5  A 2.5 2.5 0 0 1 986.5 364 L 986.5 370  A 2.5 2.5 0 0 1 984 372.5 L 978 372.5  A 2.5 2.5 0 0 1 975.5 370 L 975.5 364  Z " stroke-width="1" stroke="#0079fe" fill="none" />
</svg>