<?xml version="1.0" encoding="utf-8"?>
<svg version="1.1" xmlns:xlink="http://www.w3.org/1999/xlink" width="11px" height="9px" xmlns="http://www.w3.org/2000/svg">
  <g transform="matrix(1 0 0 1 -60 -5 )">
    <path d="M 9.18099819603127 4.94105113636364  C 9.26919222289036 4.97514204545455  9.3132892363199 5.03693181818182  9.3132892363199 5.12642045454545  L 9.3132892363199 7.15909090909091  C 9.3132892363199 7.66619318181818  9.12697935458008 8.09978693181818  8.75435959110042 8.45987215909091  C 8.38173982762077 8.81995738636364  7.93305271597515 9  7.40829825616356 9  L 1.90499098015634 9  C 1.38023652034476 9  0.931549408699138 8.81995738636364  0.558929645219483 8.45987215909091  C 0.186309881739828 8.09978693181818  0 7.66619318181818  0 7.15909090909091  L 0 1.84090909090909  C 0 1.33380681818182  0.186309881739828 0.900213068181818  0.558929645219483 0.540127840909091  C 0.931549408699138 0.180042613636363  1.38023652034476 0  1.90499098015634 0  L 7.40829825616356 0  C 7.68610944076969 0  7.94407696933253 0.053267045454545  8.18220084185207 0.159801136363636  C 8.24834636199639 0.189630681818181  8.28803367408298 0.238636363636363  8.30126277811185 0.306818181818182  C 8.31449188214071 0.379261363636363  8.29464822609742 0.441051136363636  8.24173180998196 0.4921875  L 7.9176187612748 0.805397727272727  C 7.87352174784526 0.848011363636363  7.82281018240128 0.869318181818182  7.76548406494287 0.869318181818182  C 7.75225496091401 0.869318181818182  7.73241130487072 0.865056818181818  7.70595309681299 0.856534090909091  C 7.60452996592504 0.830965909090909  7.50531168570856 0.818181818181818  7.40829825616356 0.818181818181818  L 1.90499098015634 0.818181818181818  C 1.61395069152135 0.818181818181818  1.36480256564442 0.918323863636363  1.15754660252556 1.11860795454545  C 0.950290639406695 1.31889204545454  0.846662657847264 1.55965909090909  0.846662657847264 1.84090909090909  L 0.846662657847264 7.15909090909091  C 0.846662657847264 7.44034090909091  0.950290639406695 7.68110795454545  1.15754660252556 7.88139204545455  C 1.36480256564442 8.08167613636364  1.61395069152135 8.18181818181818  1.90499098015634 8.18181818181818  L 7.40829825616356 8.18181818181818  C 7.69933854479856 8.18181818181818  7.94848667067549 8.08167613636364  8.15574263379435 7.88139204545455  C 8.36299859691321 7.68110795454545  8.46662657847264 7.44034090909091  8.46662657847264 7.15909090909091  L 8.46662657847264 5.53551136363636  C 8.46662657847264 5.48011363636364  8.48647023451593 5.43323863636364  8.52615754660253 5.39488636363636  L 8.94948887552616 4.98579545454545  C 8.9935858889557 4.94318181818182  9.04429745439968 4.921875  9.10162357185809 4.921875  C 9.12808177991582 4.921875  9.15453998797354 4.92826704545455  9.18099819603127 4.94105113636364  Z M 11 1.63636363636364  C 11 1.77698863636364  10.9470835838845 1.8984375  10.8412507516536 2.00071022727273  L 5.45700541190619 7.20383522727273  C 5.35117257967529 7.30610795454545  5.22549609140108 7.35724431818182  5.07997594708358 7.35724431818182  C 4.93445580276609 7.35724431818182  4.80877931449188 7.30610795454545  4.70294648226097 7.20383522727273  L 1.85868911605532 4.45525568181818  C 1.75285628382441 4.35298295454545  1.69993986770896 4.23153409090909  1.69993986770896 4.09090909090909  C 1.69993986770896 3.95028409090909  1.75285628382441 3.82883522727273  1.85868911605532 3.7265625  L 2.58628983764281 3.0234375  C 2.69212266987372 2.92116477272727  2.81779915814793 2.87002840909091  2.96331930246542 2.87002840909091  C 3.10883944678292 2.87002840909091  3.23451593505713 2.92116477272727  3.34034876728803 3.0234375  L 5.07997594708358 4.70454545454545  L 9.35959110042093 0.568892045454546  C 9.46542393265183 0.466619318181818  9.59110042092604 0.415482954545454  9.73662056524354 0.415482954545454  C 9.88214070956103 0.415482954545454  10.0078171978352 0.466619318181818  10.1136500300661 0.568892045454546  L 10.8412507516536 1.27201704545455  C 10.9470835838845 1.37428977272727  11 1.49573863636364  11 1.63636363636364  Z " fill-rule="nonzero" fill="#1fb53e" stroke="none" transform="matrix(1 0 0 1 60 5 )" />
  </g>
</svg>