<?xml version="1.0" encoding="utf-8"?>
<svg version="1.1" xmlns:xlink="http://www.w3.org/1999/xlink" width="9px" height="9px" xmlns="http://www.w3.org/2000/svg">
  <g transform="matrix(1 0 0 1 -152 -5 )">
    <path d="M 5.197265625 2.302734375  C 5.232421875 2.337890625  5.25 2.3828125  5.25 2.4375  L 5.25 5.0625  C 5.25 5.1171875  5.232421875 5.162109375  5.197265625 5.197265625  C 5.162109375 5.232421875  5.1171875 5.25  5.0625 5.25  L 3.1875 5.25  C 3.1328125 5.25  3.087890625 5.232421875  3.052734375 5.197265625  C 3.017578125 5.162109375  3 5.1171875  3 5.0625  L 3 4.6875  C 3 4.6328125  3.017578125 4.587890625  3.052734375 4.552734375  C 3.087890625 4.517578125  3.1328125 4.5  3.1875 4.5  L 4.5 4.5  L 4.5 2.4375  C 4.5 2.3828125  4.517578125 2.337890625  4.552734375 2.302734375  C 4.587890625 2.267578125  4.6328125 2.25  4.6875 2.25  L 5.0625 2.25  C 5.1171875 2.25  5.162109375 2.267578125  5.197265625 2.302734375  Z M 7.259765625 6.099609375  C 7.544921875 5.611328125  7.6875 5.078125  7.6875 4.5  C 7.6875 3.921875  7.544921875 3.388671875  7.259765625 2.900390625  C 6.974609375 2.412109375  6.587890625 2.025390625  6.099609375 1.740234375  C 5.611328125 1.455078125  5.078125 1.3125  4.5 1.3125  C 3.921875 1.3125  3.388671875 1.455078125  2.900390625 1.740234375  C 2.412109375 2.025390625  2.025390625 2.412109375  1.740234375 2.900390625  C 1.455078125 3.388671875  1.3125 3.921875  1.3125 4.5  C 1.3125 5.078125  1.455078125 5.611328125  1.740234375 6.099609375  C 2.025390625 6.587890625  2.412109375 6.974609375  2.900390625 7.259765625  C 3.388671875 7.544921875  3.921875 7.6875  4.5 7.6875  C 5.078125 7.6875  5.611328125 7.544921875  6.099609375 7.259765625  C 6.587890625 6.974609375  6.974609375 6.587890625  7.259765625 6.099609375  Z M 8.396484375 2.2412109375  C 8.798828125 2.9306640625  9 3.68359375  9 4.5  C 9 5.31640625  8.798828125 6.0693359375  8.396484375 6.7587890625  C 7.994140625 7.4482421875  7.4482421875 7.994140625  6.7587890625 8.396484375  C 6.0693359375 8.798828125  5.31640625 9  4.5 9  C 3.68359375 9  2.9306640625 8.798828125  2.2412109375 8.396484375  C 1.5517578125 7.994140625  1.005859375 7.4482421875  0.603515625 6.7587890625  C 0.201171875 6.0693359375  0 5.31640625  0 4.5  C 0 3.68359375  0.201171875 2.9306640625  0.603515625 2.2412109375  C 1.005859375 1.5517578125  1.5517578125 1.005859375  2.2412109375 0.603515625  C 2.9306640625 0.201171874999999  3.68359375 0  4.5 0  C 5.31640625 0  6.0693359375 0.201171874999999  6.7587890625 0.603515625  C 7.4482421875 1.005859375  7.994140625 1.5517578125  8.396484375 2.2412109375  Z " fill-rule="nonzero" fill="#f59a23" stroke="none" transform="matrix(1 0 0 1 152 5 )" />
  </g>
</svg>