<?xml version="1.0" encoding="utf-8"?>
<svg version="1.1" xmlns:xlink="http://www.w3.org/1999/xlink" width="9px" height="9px" xmlns="http://www.w3.org/2000/svg">
  <g transform="matrix(1 0 0 1 -60 -29 )">
    <path d="M 2.2412109375 0.603515625  C 2.9306640625 0.201171874999999  3.68359375 0  4.5 0  C 5.31640625 0  6.0693359375 0.201171874999999  6.7587890625 0.603515625  C 7.4482421875 1.005859375  7.994140625 1.5517578125  8.396484375 2.2412109375  C 8.798828125 2.9306640625  9 3.68359375  9 4.5  C 9 5.31640625  8.798828125 6.0693359375  8.396484375 6.7587890625  C 7.994140625 7.4482421875  7.4482421875 7.994140625  6.7587890625 8.396484375  C 6.0693359375 8.798828125  5.31640625 9  4.5 9  C 3.68359375 9  2.9306640625 8.798828125  2.2412109375 8.396484375  C 1.5517578125 7.994140625  1.005859375 7.4482421875  0.603515625 6.7587890625  C 0.201171875 6.0693359375  0 5.31640625  0 4.5  C 0 3.68359375  0.201171875 2.9306640625  0.603515625 2.2412109375  C 1.005859375 1.5517578125  1.5517578125 1.005859375  2.2412109375 0.603515625  Z M 5.197265625 7.4443359375  C 5.232421875 7.4072265625  5.25 7.361328125  5.25 7.306640625  L 5.25 6.193359375  C 5.25 6.138671875  5.232421875 6.0927734375  5.197265625 6.0556640625  C 5.162109375 6.0185546875  5.119140625 6  5.068359375 6  L 3.943359375 6  C 3.892578125 6  3.84765625 6.01953125  3.80859375 6.05859375  C 3.76953125 6.09765625  3.75 6.142578125  3.75 6.193359375  L 3.75 7.306640625  C 3.75 7.357421875  3.76953125 7.40234375  3.80859375 7.44140625  C 3.84765625 7.48046875  3.892578125 7.5  3.943359375 7.5  L 5.068359375 7.5  C 5.119140625 7.5  5.162109375 7.4814453125  5.197265625 7.4443359375  Z M 5.1767578125 5.3935546875  C 5.2138671875 5.3642578125  5.234375 5.330078125  5.23828125 5.291015625  L 5.34375 1.65234375  C 5.34375 1.60546875  5.32421875 1.5703125  5.28515625 1.546875  C 5.24609375 1.515625  5.19921875 1.5  5.14453125 1.5  L 3.85546875 1.5  C 3.80078125 1.5  3.75390625 1.515625  3.71484375 1.546875  C 3.67578125 1.5703125  3.65625 1.60546875  3.65625 1.65234375  L 3.755859375 5.291015625  C 3.755859375 5.330078125  3.775390625 5.3642578125  3.814453125 5.3935546875  C 3.853515625 5.4228515625  3.900390625 5.4375  3.955078125 5.4375  L 5.0390625 5.4375  C 5.09375 5.4375  5.1396484375 5.4228515625  5.1767578125 5.3935546875  Z " fill-rule="nonzero" fill="#f54952" stroke="none" transform="matrix(1 0 0 1 60 29 )" />
  </g>
</svg>