<?xml version="1.0" encoding="utf-8"?>
<svg version="1.1" xmlns:xlink="http://www.w3.org/1999/xlink" width="12px" height="12px" viewBox="1413 1233  12 12" xmlns="http://www.w3.org/2000/svg">
  <path d="M 1413.5 1236  A 2.5 2.5 0 0 1 1416 1233.5 L 1422 1233.5  A 2.5 2.5 0 0 1 1424.5 1236 L 1424.5 1242  A 2.5 2.5 0 0 1 1422 1244.5 L 1416 1244.5  A 2.5 2.5 0 0 1 1413.5 1242 L 1413.5 1236  Z " fill-rule="nonzero" fill="#f0f0f0" stroke="none" />
  <path d="M 1413.5 1236  A 2.5 2.5 0 0 1 1416 1233.5 L 1422 1233.5  A 2.5 2.5 0 0 1 1424.5 1236 L 1424.5 1242  A 2.5 2.5 0 0 1 1422 1244.5 L 1416 1244.5  A 2.5 2.5 0 0 1 1413.5 1242 L 1413.5 1236  Z " stroke-width="1" stroke="#0079fe" fill="none" />
</svg>