<?xml version="1.0" encoding="utf-8"?>
<svg version="1.1" xmlns:xlink="http://www.w3.org/1999/xlink" width="12px" height="12px" viewBox="1563 1233  12 12" xmlns="http://www.w3.org/2000/svg">
  <path d="M 1563.5 1236  A 2.5 2.5 0 0 1 1566 1233.5 L 1572 1233.5  A 2.5 2.5 0 0 1 1574.5 1236 L 1574.5 1242  A 2.5 2.5 0 0 1 1572 1244.5 L 1566 1244.5  A 2.5 2.5 0 0 1 1563.5 1242 L 1563.5 1236  Z " fill-rule="nonzero" fill="#f0f0f0" stroke="none" />
  <path d="M 1563.5 1236  A 2.5 2.5 0 0 1 1566 1233.5 L 1572 1233.5  A 2.5 2.5 0 0 1 1574.5 1236 L 1574.5 1242  A 2.5 2.5 0 0 1 1572 1244.5 L 1566 1244.5  A 2.5 2.5 0 0 1 1563.5 1242 L 1563.5 1236  Z " stroke-width="1" stroke="#0079fe" fill="none" />
  <path d="M 1565.57142857143 1239  L 1568.14285714286 1241.57142857143  " stroke-width="2.57142857142857" stroke="#0079fe" fill="none" />
  <path d="M 1568.14285714286 1241.57142857143  L 1572.42857142857 1235.57142857143  " stroke-width="2.57142857142857" stroke="#0079fe" fill="none" />
</svg>