<?xml version="1.0" encoding="utf-8"?>
<svg version="1.1" xmlns:xlink="http://www.w3.org/1999/xlink" width="12px" height="12px" viewBox="842 933  12 12" xmlns="http://www.w3.org/2000/svg">
  <path d="M 842.5 936  A 2.5 2.5 0 0 1 845 933.5 L 851 933.5  A 2.5 2.5 0 0 1 853.5 936 L 853.5 942  A 2.5 2.5 0 0 1 851 944.5 L 845 944.5  A 2.5 2.5 0 0 1 842.5 942 L 842.5 936  Z " fill-rule="nonzero" fill="#f0f0f0" stroke="none" />
  <path d="M 842.5 936  A 2.5 2.5 0 0 1 845 933.5 L 851 933.5  A 2.5 2.5 0 0 1 853.5 936 L 853.5 942  A 2.5 2.5 0 0 1 851 944.5 L 845 944.5  A 2.5 2.5 0 0 1 842.5 942 L 842.5 936  Z " stroke-width="1" stroke="#0079fe" fill="none" />
</svg>