<?xml version="1.0" encoding="utf-8"?>
<svg version="1.1" xmlns:xlink="http://www.w3.org/1999/xlink" width="11px" height="17px" xmlns="http://www.w3.org/2000/svg">
  <g transform="matrix(1 0 0 1 -972 -246 )">
    <path d="M 4.50208984375 15.918291015625  C 4.2549944729103 16.2055775758755  3.89581560512797 16.3720828503449  3.51689453125 16.375  C 3.0880882239632 16.3731604085714  2.68400857503565 16.1739949807117  2.4213671875 15.835029296875  C 2.1699634572341 15.5089898068327  2.08787945537946 15.0831267462375  2.200087890625 14.687001953125  L 3.35939453125 10.249931640625  L 1.440478515625 9.47822265625  C 0.751826171875001 9.202392578125  0.417343750000001 8.4204296875  0.693173828125 7.731982421875  C 0.75076611210639 7.58828260916206  0.832775253540619 7.45562484399942  0.935576171875 7.339873046875  L 6.49873046875 1.081708984375  C 6.74580094662173 0.794389494983569  7.10499566418136 0.627876873000786  7.48392578125 0.625  C 7.912333984375 0.627255859375  8.3161328125 0.826181640625  8.5786328125 1.164970703125  C 8.82984982834539 1.49109436301102  8.91191592194641 1.91686451313015  8.799912109375 2.312998046875  L 7.64060546875 6.750068359375  L 9.559521484375 7.518291015625  C 10.248173828125 7.79412109375  10.58265625 8.576083984375  10.306826171875 9.26453125  C 10.2492338878936 9.40823106271293  10.1672247464594 9.54088882787558  10.064423828125 9.656640625  L 4.50208984375 15.918291015625  Z M 6.043662109375 7.56115234375  L 7.5007421875 1.974208984375  L 1.939228515625 8.23134765625  L 4.957158203125 9.43884765625  L 3.499462890625 15.025791015625  L 9.061591796875 8.76865234375  L 6.043662109375 7.56115234375  Z " fill-rule="nonzero" fill="#ffffff" stroke="none" transform="matrix(1 0 0 1 972 246 )" />
  </g>
</svg>