<?xml version="1.0" encoding="utf-8"?>
<svg version="1.1" xmlns:xlink="http://www.w3.org/1999/xlink" width="10px" height="10px" xmlns="http://www.w3.org/2000/svg">
  <g transform="matrix(1 0 0 1 -359 2803 )">
    <path d="M 9.95351106039326 4.9732404977177  C 9.95351103844803 7.68731048103933  7.74563720154494 9.89516186797753  5.03158971207865 9.89516186797753  C 2.31754220066713 9.89516186797753  0.10966834181882 7.68731048103933  0.10966834181882 4.9732404977177  C 0.10966834181882 2.25917051439607  2.31751972875702 0.0513191274578653  5.03158971207865 0.0513191274578653  C 7.74565969540028 0.0513191274578653  9.95351108233848 2.25917051439607  9.95351106039326 4.9732404977177  Z M 8.11540899315309 4.9732404977177  C 8.11540899315309 3.27277543451545  6.7320547752809 1.88942121664326  5.03158971207865 1.88942121664326  C 3.33112464887641 1.88942121664326  1.94777043100421 3.27277543451545  1.94777043100421 4.9732404977177  C 1.94777043100421 6.67370556091995  3.3311246488764 8.05705977879214  5.03158971207865 8.05705977879214  C 6.7320547752809 8.05705977879214  8.11540899315309 6.67370556091995  8.11540899315309 4.9732404977177  Z " fill-rule="nonzero" fill="#ff3ec9" stroke="none" transform="matrix(1 0 0 1 359 -2803 )" />
  </g>
</svg>