<?xml version="1.0" encoding="utf-8"?>
<svg version="1.1" xmlns:xlink="http://www.w3.org/1999/xlink" width="14px" height="14px" xmlns="http://www.w3.org/2000/svg">
  <g transform="matrix(1 0 0 1 -197 -20 )">
    <path d="M 9.66659136304041 0.000410470703125  C 10.8708130383458 0.023647435546875  11.8358306317145 1.02010328710938  11.8098599071154 2.23662688867188  C 11.7838891825163 3.41624471289063  10.8134040559466 4.37032726757813  9.633786232194 4.37442790039063  C 9.03782635742948 4.37716166015625  8.49790857834595 4.14205822460938  8.10151326209633 3.7579648203125  C 8.03180235392075 3.68962079882812  7.92381880904154 3.675952  7.83907221532503 3.72515968945312  L 4.39179973035905 5.71533761914062  C 4.30431937687799 5.7659121953125  4.26331296673794 5.868428234375  4.29065057805526 5.96547674023437  C 4.34805956045445 6.16777504492187  4.37676404481811 6.38100840234375  4.37266339833536 6.60244302539062  C 4.35079330654712 7.77659333007812  3.35433746905024 8.75254596289062  2.18018716482668 8.74844533007813  C 0.973231729756722 8.7457115703125  -0.00408778938835372 7.76292453125  1.28570944009641E-05 6.55460220898437  C 0.00411350357715565 5.35311430664063  0.988267415297656 4.37306101367188  2.18838844412032 4.37442790039063  C 2.75701070756751 4.37442790039063  3.27505839486281 4.591761890625  3.66325244549067 4.94851768359375  C 3.73433022671259 5.01276105859375  3.83821313878091 5.025062984375  3.92022597273288 4.97722218164062  L 7.39893670182707 2.96927480664062  C 7.48368329554358 2.9200671171875  7.52605657872996 2.82028483789062  7.50145274084906 2.725970078125  C 7.45634568422626 2.54690873828125  7.43310871939169 2.35827923242188  7.43447559243803 2.16554909375  C 7.44951127797896 0.943557986328125  8.44596712914772 -0.022826494140625  9.66659136304041 0.000410470703125  Z M 11.8139605399263 5.47066601757812  C 13.0209159749962 5.46929913085937  13.9996023671877 6.450719296875  13.996868621095 7.65904160546875  C 13.9941348613304 8.87009767382813  12.9949452503971 9.856985359375  11.7825222957981 9.8419496875  C 11.2056987530573 9.83511528125  10.6835504192792 9.60547936523438  10.2967232553695 9.23505475976562  C 10.2256454741476 9.16807761132812  10.1203956753611 9.1544088125  10.0356490816446 9.203616515625  L 6.62801613377231 11.1719243535156  C 6.54737018653855 11.2183982832031  6.5049968896803 11.31134615625  6.52276634865765 11.40292715625  C 6.55010395997497 11.5478164785156  6.5637727587977 11.6968064472656  6.56103899903315 11.8498970625  C 6.54053579396313 13.0445505722656  5.56868379434714 14  4.37403028505357 14  C 3.18074366247821 14  2.21025853590855 13.0431836855469  2.18838844412032 11.8539976953125  C 2.16651835233209 10.6484091464844  3.13426970546532 9.643752015625  4.33985826748895 9.6259825703125  C 4.99186023793444 9.61641440429688  5.57961883340532 9.89115737695312  5.98558232933866 10.3340266503906  C 6.05529323751424 10.409205078125  6.1673774288762 10.4283413964844  6.2562246554036 10.3763999335937  L 9.59004606228941 8.451832265625  C 9.67479265600592 8.40262457617187  9.7171659391923 8.302842296875  9.69256208763952 8.2071606640625  C 9.64198751148763 8.011696765625  9.61738365993486 7.80529781445312  9.62421806618216 7.59343134375  C 9.65839008374678 6.40424535351563  10.6247745501618 5.46929913085938  11.8139605399263 5.47066601757812  Z " fill-rule="nonzero" fill="#ffffff" stroke="none" transform="matrix(1 0 0 1 197 20 )" />
  </g>
</svg>