<?xml version="1.0" encoding="utf-8"?>
<svg version="1.1" xmlns:xlink="http://www.w3.org/1999/xlink" width="15px" height="15px" xmlns="http://www.w3.org/2000/svg">
  <g transform="matrix(1 0 0 1 -295 -19 )">
    <path d="M 1.1625 12.975  C 1.1625 13.35  1.425 13.275  1.8375 13  L 13.3875 13  C 13.7625 13.2375  13.725 13.35  13.725 12.9375  L 13.725 12  C 13.725 11.475  13.6125 11.3625  13.0875 11.3625  L 10.8375 11.3625  C 10.5375 11.1375  10.5 10.8375  10.425 10.7625  C 9.1125 9.3  9.8625 8.325  10.6875 6.975  C 10.8375 6.7875  10.9875 6.6  11.1 6.375  C 11.4375 5.775  11.625 5.1  11.625 4.35  C 11.625 2.025  9.75 0.1125  7.3875 0.1125  C 5.0625 0.1125  3.15 1.9875  3.15 4.35  C 3.15 5.325  3.4875 6.225  4.05 6.9375  C 4.95 8.3625  6.4125 9.525  4.05 11.3625  L 1.8 11.3625  C 1.3875 11.3625  1.1625 11.5875  1.1625 12  L 1.1625 12.975  Z M 14.6625 14.25  C 14.6625 14.0625  14.5125 13.9125  14.3625 14  L 0.525 14  C 0.3375 13.9125  0.1875 14.0625  0.1875 14.25  L 0.1875 14.5875  C 0.1875 14.775  0.3375 14.925  0.525 15  L 14.325 15  C 14.5125 14.925  14.6625 14.775  14.6625 14.5875  L 14.6625 14.25  Z " fill-rule="nonzero" fill="#ffffff" stroke="none" transform="matrix(1 0 0 1 295 19 )" />
  </g>
</svg>