<?xml version="1.0" encoding="utf-8"?>
<svg version="1.1" xmlns:xlink="http://www.w3.org/1999/xlink" width="16px" height="14px" xmlns="http://www.w3.org/2000/svg">
  <g transform="matrix(1 0 0 1 -467 -20 )">
    <path d="M 10.9425 11.66  L 9.39 9.5925  C 10.3124500663726 8.63431427117624  10.827775591781 7.35599415552361  10.827775591781 6.02594377457098  C 10.827775591781 3.18581944856612  8.52539991778587 0.883443774570977  5.68527559178102 0.883443774570977  C 2.84515126577616 0.883443774570977  0.542775591781016 3.18581944856612  0.542775591781016 6.02594377457098  C 0.542775591781016 8.86606810057583  2.84515126577616 11.168443774571  5.68527559178102 11.168443774571  C 6.45913947503309 11.168443774571  7.22302497110144 10.9937902301493  7.92 10.6575  L 9.48 12.75  C 9.6531452385027 12.9670034843758  9.91566136882529 13.0933832733307  10.1932758242259 13.0933832733307  C 10.6972356584465 13.0933832733307  11.1057758242259 12.6848431075513  11.1057758242259 12.1808832733307  C 11.1057758242259 11.9946625974629  11.0488005317347 11.8128997615224  10.9425 11.66  Z M 5.6975 9.9475  C 3.52360563154146 9.94889333935664  1.75826531322825 8.1913791022519  1.75 6.0175  C 1.74999155186783 6.01416906085369  1.74998732779665 6.01083811233361  1.74998732779665 6.00750716247398  C 1.74998732779665 3.83150524814065  3.51398541346332 2.06750716247398  5.68998732779665 2.06750716247398  C 7.86598924212997 2.06750716247398  9.62998732779665 3.83150524814065  9.62998732779665 6.00750716247398  C 9.62998732779665 8.18057577300432  7.8705646601376 9.94335645884611  5.6975 9.9475  Z M 11.6125 3.085  L 14.715 3.085  C 15.0238487070953 3.05059503688975  15.2574652867038 2.78950911146912  15.2574652867038 2.47875  C 15.2574652867038 2.16799088853088  15.0238487070953 1.90690496311025  14.715 1.8725  L 11.6125 1.8725  C 11.3036512929047 1.90690496311025  11.0700347132962 2.16799088853088  11.0700347132962 2.47875  C 11.0700347132962 2.78950911146912  11.3036512929047 3.05059503688975  11.6125 3.085  Z M 15.3675 5.9325  L 15.3675 5.925  C 15.2531412220391 5.81180614602144  15.0984018698234 5.74883082825928  14.9375 5.75  L 12.3525 5.75  C 12.0436512929047 5.78440496311025  11.8100347132962 6.04549088853088  11.8100347132962 6.35625  C 11.8100347132962 6.66700911146913  12.0436512929047 6.92809503688976  12.3525 6.9625  L 14.9375 6.9625  C 14.9383350505403 6.9625034721288  14.939170107397 6.96250520819882  14.9400051651559 6.96250520819882  C 15.2717828645764 6.96250520819882  15.5411261970385 6.69427485513251  15.5425 6.3625  C 15.5425835599857 6.20180838550662  15.479769941761 6.04746635215462  15.3675 5.9325  Z M 14.855 9.6175  L 13.5675 9.6175  C 13.2586512929047 9.65190496311024  13.0250347132962 9.91299088853087  13.0250347132962 10.22375  C 13.0250347132962 10.5345091114691  13.2586512929047 10.7955950368898  13.5675 10.83  L 14.855 10.83  C 14.8846488735605 10.8344004975246  14.9145817667504 10.8366097231702  14.9445554232151 10.8366097231702  C 15.2814491206119 10.8366097231702  15.5545554232151 10.563503420567  15.5545554232151 10.2266097231702  C 15.5545554232151 9.90251709771566  15.3011196219215 9.63500343341752  14.9775 9.6175  C 14.9368210157581 9.61247900890297  14.8956789842419 9.61247900890297  14.855 9.6175  Z " fill-rule="nonzero" fill="#999999" stroke="none" transform="matrix(1 0 0 1 467 20 )" />
  </g>
</svg>