<?xml version="1.0" encoding="utf-8"?>
<svg version="1.1" xmlns:xlink="http://www.w3.org/1999/xlink" width="7px" height="6px" xmlns="http://www.w3.org/2000/svg">
  <g transform="matrix(1 0 0 1 -548 -24 )">
    <path d="M 2.52548828125 2.0091796875  C 0.569824218750001 2.0921875  0.377246093750001 2.74130859375  1.95107421875 3.9548828125  C 1.620703125 5.17841796875  1.7037109375 5.791015625  2.2017578125 5.791015625  C 2.50224609375 5.791015625  2.95048828125 5.5685546875  3.55146484375 5.12529296875  C 4.15078125 5.54033203125  4.60068359375 5.7478515625  4.89951171875 5.7478515625  C 5.4158203125 5.7478515625  5.4888671875 5.13359375  5.1169921875 3.90341796875  C 6.654296875 2.6400390625  6.44345703125 1.99921875  4.48447265625 1.97763671875  C 4.14580078125 1.02802734375  3.81376953125 0.553222656249999  3.48837890625 0.553222656249999  C 3.161328125 0.553222656249999  2.8392578125 1.03798828125  2.52548828125 2.0091796875  Z M 1.952734375 2.87578125  C 2.098828125 2.85751953125  2.298046875 2.8359375  2.56201171875 2.82431640625  C 2.90400390625 2.81103515625  3.19951171875 2.58525390625  3.30576171875 2.25986328125  C 3.37880859375 2.032421875  3.44521484375 1.85810546875  3.5033203125 1.72197265625  C 3.56474609375 1.85478515625  3.63779296875 2.02744140625  3.7158203125 2.24990234375  C 3.83037109375 2.57197265625  4.1341796875 2.789453125  4.47783203125 2.7927734375  C 4.74013671875 2.79609375  4.9376953125 2.809375  5.0837890625 2.829296875  C 4.97587890625 2.9421875  4.821484375 3.08828125  4.5990234375 3.26923828125  C 4.34501953125 3.47841796875  4.2404296875 3.8220703125  4.33505859375 4.1375  C 4.4130859375 4.396484375  4.46123046875 4.595703125  4.489453125 4.75009765625  C 4.36494140625 4.68037109375  4.20888671875 4.58408203125  4.01630859375 4.449609375  C 3.87685546875 4.3533203125  3.71416015625 4.30517578125  3.55146484375 4.30517578125  C 3.38046875 4.30517578125  3.20947265625 4.35830078125  3.0650390625 4.46455078125  C 2.87744140625 4.60400390625  2.72470703125 4.7052734375  2.60185546875 4.77666015625  C 2.6267578125 4.622265625  2.66826171875 4.42138671875  2.7396484375 4.16240234375  C 2.82431640625 3.84365234375  2.71142578125 3.50498046875  2.44912109375 3.30244140625  C 2.2216796875 3.12646484375  2.0623046875 2.9853515625  1.952734375 2.87578125  Z " fill-rule="nonzero" fill="#999999" stroke="none" transform="matrix(1 0 0 1 548 24 )" />
  </g>
</svg>