<?xml version="1.0" encoding="utf-8"?>
<svg version="1.1" xmlns:xlink="http://www.w3.org/1999/xlink" width="17px" height="17px" xmlns="http://www.w3.org/2000/svg">
  <g transform="matrix(1 0 0 1 -891 -8 )">
    <path d="M 16.5879123263889 3.79456380208333  C 16.5879123263889 1.96433376736111  15.1005967881944 0.477018229166667  13.2703667534722 0.477018229166667  L 3.81079644097222 0.477018229166667  C 1.98259548611111 0.477018229166667  0.493250868055555 1.96636284722222  0.493250868055555 3.79456380208333  L 0.493250868055555 13.2541341145833  C 0.493250868055555 15.0823350694444  1.98259548611111 16.5716796875  3.81079644097222 16.5716796875  L 13.2703667534722 16.5716796875  C 15.0985677083333 16.5716796875  16.6000868055556 15.0823350694444  16.5879123263889 13.2541341145833  L 16.5879123263889 3.79456380208333  Z M 6.65962456597222 14.1753363715278  C 6.65962456597222 14.6034722222222  6.33294270833333 14.9565321180556  5.90480685763889 14.9565321180556  L 2.85104166666667 14.9565321180556  C 2.43508029513889 14.9565321180556  2.08202039930556 14.6156467013889  2.06984592013889 14.1753363715278  L 2.06984592013889 11.1236002604167  C 2.06984592013889 10.6954644097222  2.41073133680556 10.3545789930556  2.8388671875 10.3545789930556  C 3.05394965277778 10.3545789930556  3.24265407986111 10.4438585069444  3.38063151041667 10.5818359375  C 3.51860894097222 10.7198133680556  3.60788845486111 10.9227213541667  3.60788845486111 11.1236002604167  L 3.60788845486111 12.3085828993056  L 6.37149522569444 9.54497612847222  C 6.673828125 9.24264322916667  7.16689453125 9.24264322916667  7.46922743055556 9.54497612847222  C 7.77156032986111 9.84730902777778  7.77156032986111 10.3403754340278  7.46922743055556 10.6427083333333  L 4.70562065972222 13.4063151041667  L 5.89060329861111 13.4063151041667  C 6.31873914930556 13.4063151041667  6.65962456597222 13.7472005208333  6.65962456597222 14.1753363715278  Z M 10.3728407118056 2.69683159722222  C 10.3728407118056 2.26869574652778  10.6995225694444 1.91360677083333  11.1296875 1.91360677083334  L 14.1814236111111 1.91360677083334  C 14.5973849826389 1.91360677083334  14.9504448784722 2.2544921875  14.9626193576389 2.69480251736111  L 14.9626193576389 5.74653862847222  C 14.9626193576389 6.17467447916667  14.6217339409722 6.51555989583334  14.1935980902778 6.51555989583334  C 13.978515625 6.51555989583334  13.7898111979167 6.42628038194445  13.6518337673611 6.28830295138889  C 13.5138563368056 6.15032552083334  13.4245768229167 5.94741753472222  13.4245768229167 5.74653862847222  L 13.4245768229167 4.56358506944444  L 10.6609700520833 7.32719184027778  C 10.3586371527778 7.62952473958333  9.86557074652778 7.62952473958333  9.56323784722222 7.32719184027778  C 9.26090494791667 7.02485894097222  9.26090494791667 6.53179253472222  9.56323784722222 6.22945963541667  L 12.3268446180556 3.46585286458333  L 11.1418619791667 3.46585286458333  C 10.7137261284722 3.46585286458333  10.3728407118056 3.12496744791667  10.3728407118056 2.69683159722222  Z " fill-rule="nonzero" fill="#0079fe" stroke="none" transform="matrix(1 0 0 1 891 8 )" />
  </g>
</svg>