<?xml version="1.0" encoding="utf-8"?>
<svg version="1.1" xmlns:xlink="http://www.w3.org/1999/xlink" width="14px" height="14px" viewBox="274 173  14 14" xmlns="http://www.w3.org/2000/svg">
  <path d="M 274.5 176  A 2.5 2.5 0 0 1 277 173.5 L 285 173.5  A 2.5 2.5 0 0 1 287.5 176 L 287.5 184  A 2.5 2.5 0 0 1 285 186.5 L 277 186.5  A 2.5 2.5 0 0 1 274.5 184 L 274.5 176  Z " fill-rule="nonzero" fill="#ffffff" stroke="none" />
  <path d="M 274.5 176  A 2.5 2.5 0 0 1 277 173.5 L 285 173.5  A 2.5 2.5 0 0 1 287.5 176 L 287.5 184  A 2.5 2.5 0 0 1 285 186.5 L 277 186.5  A 2.5 2.5 0 0 1 274.5 184 L 274.5 176  Z " stroke-width="1" stroke="#797979" fill="none" />
  <path d="M 277.5 180.5  L 280.5 183.5  " stroke-width="3" stroke="#797979" fill="none" />
  <path d="M 280.5 183.5  L 285.5 176.5  " stroke-width="3" stroke="#797979" fill="none" />
</svg>