<?xml version="1.0" encoding="utf-8"?>
<svg version="1.1" xmlns:xlink="http://www.w3.org/1999/xlink" width="14px" height="14px" viewBox="274 213  14 14" xmlns="http://www.w3.org/2000/svg">
  <path d="M 274.5 216  A 2.5 2.5 0 0 1 277 213.5 L 285 213.5  A 2.5 2.5 0 0 1 287.5 216 L 287.5 224  A 2.5 2.5 0 0 1 285 226.5 L 277 226.5  A 2.5 2.5 0 0 1 274.5 224 L 274.5 216  Z " fill-rule="nonzero" fill="#ffffff" stroke="none" />
  <path d="M 274.5 216  A 2.5 2.5 0 0 1 277 213.5 L 285 213.5  A 2.5 2.5 0 0 1 287.5 216 L 287.5 224  A 2.5 2.5 0 0 1 285 226.5 L 277 226.5  A 2.5 2.5 0 0 1 274.5 224 L 274.5 216  Z " stroke-width="1" stroke="#797979" fill="none" />
</svg>