<?xml version="1.0" encoding="utf-8"?>
<svg version="1.1" xmlns:xlink="http://www.w3.org/1999/xlink" width="164px" height="39px" xmlns="http://www.w3.org/2000/svg">
  <defs>
    <filter x="177px" y="-1714px" width="164px" height="39px" filterUnits="userSpaceOnUse" id="filter34">
      <feOffset dx="0" dy="0" in="SourceAlpha" result="shadowOffsetInner" />
      <feGaussianBlur stdDeviation="1.5" in="shadowOffsetInner" result="shadowGaussian" />
      <feComposite in2="shadowGaussian" operator="atop" in="SourceAlpha" result="shadowComposite" />
      <feColorMatrix type="matrix" values="0 0 0 0 0  0 0 0 0 0.474509803921569  0 0 0 0 0.996078431372549  0 0 0 0.8 0  " in="shadowComposite" />
    </filter>
    <g id="widget35">
      <path d="M 180.5 -1708  A 2.5 2.5 0 0 1 183 -1710.5 L 335 -1710.5  A 2.5 2.5 0 0 1 337.5 -1708 L 337.5 -1681  A 2.5 2.5 0 0 1 335 -1678.5 L 183 -1678.5  A 2.5 2.5 0 0 1 180.5 -1681 L 180.5 -1708  Z " fill-rule="nonzero" fill="#ffffff" stroke="none" />
      <path d="M 180.5 -1708  A 2.5 2.5 0 0 1 183 -1710.5 L 335 -1710.5  A 2.5 2.5 0 0 1 337.5 -1708 L 337.5 -1681  A 2.5 2.5 0 0 1 335 -1678.5 L 183 -1678.5  A 2.5 2.5 0 0 1 180.5 -1681 L 180.5 -1708  Z " stroke-width="1" stroke="#0079fe" fill="none" />
    </g>
  </defs>
  <g transform="matrix(1 0 0 1 -177 1714 )">
    <use xlink:href="#widget35" filter="url(#filter34)" />
    <use xlink:href="#widget35" />
  </g>
</svg>