<?xml version="1.0" encoding="utf-8"?>
<svg version="1.1" xmlns:xlink="http://www.w3.org/1999/xlink" width="165px" height="33px" xmlns="http://www.w3.org/2000/svg">
  <g transform="matrix(1 0 0 1 -24 2785 )">
    <path d="M 24.5 -2782  A 2.5 2.5 0 0 1 27 -2784.5 L 186 -2784.5  A 2.5 2.5 0 0 1 188.5 -2782 L 188.5 -2755  A 2.5 2.5 0 0 1 186 -2752.5 L 27 -2752.5  A 2.5 2.5 0 0 1 24.5 -2755 L 24.5 -2782  Z " fill-rule="nonzero" fill="#ffffff" stroke="none" />
    <path d="M 24.5 -2782  A 2.5 2.5 0 0 1 27 -2784.5 L 186 -2784.5  A 2.5 2.5 0 0 1 188.5 -2782 L 188.5 -2755  A 2.5 2.5 0 0 1 186 -2752.5 L 27 -2752.5  A 2.5 2.5 0 0 1 24.5 -2755 L 24.5 -2782  Z " stroke-width="1" stroke="#0079fe" fill="none" />
  </g>
</svg>