<?xml version="1.0" encoding="utf-8"?>
<svg version="1.1" xmlns:xlink="http://www.w3.org/1999/xlink" width="171px" height="39px" xmlns="http://www.w3.org/2000/svg">
  <defs>
    <filter x="21px" y="-2788px" width="171px" height="39px" filterUnits="userSpaceOnUse" id="filter30">
      <feOffset dx="0" dy="0" in="SourceAlpha" result="shadowOffsetInner" />
      <feGaussianBlur stdDeviation="1.5" in="shadowOffsetInner" result="shadowGaussian" />
      <feComposite in2="shadowGaussian" operator="atop" in="SourceAlpha" result="shadowComposite" />
      <feColorMatrix type="matrix" values="0 0 0 0 0  0 0 0 0 0.474509803921569  0 0 0 0 0.996078431372549  0 0 0 0.8 0  " in="shadowComposite" />
    </filter>
    <g id="widget31">
      <path d="M 24.5 -2782  A 2.5 2.5 0 0 1 27 -2784.5 L 186 -2784.5  A 2.5 2.5 0 0 1 188.5 -2782 L 188.5 -2755  A 2.5 2.5 0 0 1 186 -2752.5 L 27 -2752.5  A 2.5 2.5 0 0 1 24.5 -2755 L 24.5 -2782  Z " fill-rule="nonzero" fill="#ffffff" stroke="none" />
      <path d="M 24.5 -2782  A 2.5 2.5 0 0 1 27 -2784.5 L 186 -2784.5  A 2.5 2.5 0 0 1 188.5 -2782 L 188.5 -2755  A 2.5 2.5 0 0 1 186 -2752.5 L 27 -2752.5  A 2.5 2.5 0 0 1 24.5 -2755 L 24.5 -2782  Z " stroke-width="1" stroke="#0079fe" fill="none" />
    </g>
  </defs>
  <g transform="matrix(1 0 0 1 -21 2788 )">
    <use xlink:href="#widget31" filter="url(#filter30)" />
    <use xlink:href="#widget31" />
  </g>
</svg>