<?xml version="1.0" encoding="utf-8"?>
<svg version="1.1" xmlns:xlink="http://www.w3.org/1999/xlink" width="158px" height="33px" xmlns="http://www.w3.org/2000/svg">
  <g transform="matrix(1 0 0 1 -180 1711 )">
    <path d="M 181 -1708  A 2 2 0 0 1 183 -1710 L 335 -1710  A 2 2 0 0 1 337 -1708 L 337 -1681  A 2 2 0 0 1 335 -1679 L 183 -1679  A 2 2 0 0 1 181 -1681 L 181 -1708  Z " fill-rule="nonzero" fill="#ffffff" stroke="none" />
    <path d="M 180.5 -1708  A 2.5 2.5 0 0 1 183 -1710.5 L 335 -1710.5  A 2.5 2.5 0 0 1 337.5 -1708 L 337.5 -1681  A 2.5 2.5 0 0 1 335 -1678.5 L 183 -1678.5  A 2.5 2.5 0 0 1 180.5 -1681 L 180.5 -1708  Z " stroke-width="1" stroke="#cccccc" fill="none" stroke-opacity="0.698039215686274" />
  </g>
</svg>