<?xml version="1.0" encoding="utf-8"?>
<svg version="1.1" xmlns:xlink="http://www.w3.org/1999/xlink" width="14px" height="14px" viewBox="16 9  14 14" xmlns="http://www.w3.org/2000/svg">
  <path d="M 16.5 12  A 2.5 2.5 0 0 1 19 9.5 L 27 9.5  A 2.5 2.5 0 0 1 29.5 12 L 29.5 20  A 2.5 2.5 0 0 1 27 22.5 L 19 22.5  A 2.5 2.5 0 0 1 16.5 20 L 16.5 12  Z " fill-rule="nonzero" fill="#ffffff" stroke="none" />
  <path d="M 16.5 12  A 2.5 2.5 0 0 1 19 9.5 L 27 9.5  A 2.5 2.5 0 0 1 29.5 12 L 29.5 20  A 2.5 2.5 0 0 1 27 22.5 L 19 22.5  A 2.5 2.5 0 0 1 16.5 20 L 16.5 12  Z " stroke-width="1" stroke="#0079fe" fill="none" />
  <path d="M 19.5 16.5  L 22.5 19.5  " stroke-width="3" stroke="#0079fe" fill="none" />
  <path d="M 22.5 19.5  L 27.5 12.5  " stroke-width="3" stroke="#0079fe" fill="none" />
</svg>