<?xml version="1.0" encoding="utf-8"?>
<svg version="1.1" xmlns:xlink="http://www.w3.org/1999/xlink" width="14px" height="14px" viewBox="16 132  14 14" xmlns="http://www.w3.org/2000/svg">
  <path d="M 16.5 135  A 2.5 2.5 0 0 1 19 132.5 L 27 132.5  A 2.5 2.5 0 0 1 29.5 135 L 29.5 143  A 2.5 2.5 0 0 1 27 145.5 L 19 145.5  A 2.5 2.5 0 0 1 16.5 143 L 16.5 135  Z " fill-rule="nonzero" fill="#f0f0f0" stroke="none" />
  <path d="M 16.5 135  A 2.5 2.5 0 0 1 19 132.5 L 27 132.5  A 2.5 2.5 0 0 1 29.5 135 L 29.5 143  A 2.5 2.5 0 0 1 27 145.5 L 19 145.5  A 2.5 2.5 0 0 1 16.5 143 L 16.5 135  Z " stroke-width="1" stroke="#0079fe" fill="none" />
  <path d="M 19.5 139.5  L 22.5 142.5  " stroke-width="3" stroke="#0079fe" fill="none" />
  <path d="M 22.5 142.5  L 27.5 135.5  " stroke-width="3" stroke="#0079fe" fill="none" />
</svg>