<?xml version="1.0" encoding="utf-8"?>
<svg version="1.1" xmlns:xlink="http://www.w3.org/1999/xlink" width="14px" height="14px" viewBox="16 168  14 14" xmlns="http://www.w3.org/2000/svg">
  <path d="M 16.5 171  A 2.5 2.5 0 0 1 19 168.5 L 27 168.5  A 2.5 2.5 0 0 1 29.5 171 L 29.5 179  A 2.5 2.5 0 0 1 27 181.5 L 19 181.5  A 2.5 2.5 0 0 1 16.5 179 L 16.5 171  Z " fill-rule="nonzero" fill="#f0f0f0" stroke="none" />
  <path d="M 16.5 171  A 2.5 2.5 0 0 1 19 168.5 L 27 168.5  A 2.5 2.5 0 0 1 29.5 171 L 29.5 179  A 2.5 2.5 0 0 1 27 181.5 L 19 181.5  A 2.5 2.5 0 0 1 16.5 179 L 16.5 171  Z " stroke-width="1" stroke="#0079fe" fill="none" />
  <path d="M 19.5 175.5  L 22.5 178.5  " stroke-width="3" stroke="#0079fe" fill="none" />
  <path d="M 22.5 178.5  L 27.5 171.5  " stroke-width="3" stroke="#0079fe" fill="none" />
</svg>