<?xml version="1.0" encoding="utf-8"?>
<svg version="1.1" xmlns:xlink="http://www.w3.org/1999/xlink" width="227px" height="39px" xmlns="http://www.w3.org/2000/svg">
  <defs>
    <filter x="89px" y="209px" width="227px" height="39px" filterUnits="userSpaceOnUse" id="filter39">
      <feOffset dx="0" dy="0" in="SourceAlpha" result="shadowOffsetInner" />
      <feGaussianBlur stdDeviation="1.5" in="shadowOffsetInner" result="shadowGaussian" />
      <feComposite in2="shadowGaussian" operator="atop" in="SourceAlpha" result="shadowComposite" />
      <feColorMatrix type="matrix" values="0 0 0 0 0  0 0 0 0 0.474509803921569  0 0 0 0 0.996078431372549  0 0 0 0.8 0  " in="shadowComposite" />
    </filter>
    <g id="widget40">
      <path d="M 92.5 215  A 2.5 2.5 0 0 1 95 212.5 L 310 212.5  A 2.5 2.5 0 0 1 312.5 215 L 312.5 242  A 2.5 2.5 0 0 1 310 244.5 L 95 244.5  A 2.5 2.5 0 0 1 92.5 242 L 92.5 215  Z " fill-rule="nonzero" fill="#ffffff" stroke="none" />
      <path d="M 92.5 215  A 2.5 2.5 0 0 1 95 212.5 L 310 212.5  A 2.5 2.5 0 0 1 312.5 215 L 312.5 242  A 2.5 2.5 0 0 1 310 244.5 L 95 244.5  A 2.5 2.5 0 0 1 92.5 242 L 92.5 215  Z " stroke-width="1" stroke="#0079fe" fill="none" />
    </g>
  </defs>
  <g transform="matrix(1 0 0 1 -89 -209 )">
    <use xlink:href="#widget40" filter="url(#filter39)" />
    <use xlink:href="#widget40" />
  </g>
</svg>