<?xml version="1.0" encoding="utf-8"?>
<svg version="1.1" xmlns:xlink="http://www.w3.org/1999/xlink" width="221px" height="33px" xmlns="http://www.w3.org/2000/svg">
  <g transform="matrix(1 0 0 1 -92 -212 )">
    <path d="M 93 215  A 2 2 0 0 1 95 213 L 310 213  A 2 2 0 0 1 312 215 L 312 242  A 2 2 0 0 1 310 244 L 95 244  A 2 2 0 0 1 93 242 L 93 215  Z " fill-rule="nonzero" fill="#ffffff" stroke="none" />
    <path d="M 92.5 215  A 2.5 2.5 0 0 1 95 212.5 L 310 212.5  A 2.5 2.5 0 0 1 312.5 215 L 312.5 242  A 2.5 2.5 0 0 1 310 244.5 L 95 244.5  A 2.5 2.5 0 0 1 92.5 242 L 92.5 215  Z " stroke-width="1" stroke="#cccccc" fill="none" stroke-opacity="0.698039215686274" />
  </g>
</svg>